<svg width="23" height="19" viewBox="0 0 23 19" fill="none" xmlns="http://www.w3.org/2000/svg">
<path d="M5.42383 9.5294H10.2383" stroke="#D9D9D9" stroke-width="1.09804" stroke-linecap="round" stroke-linejoin="round"/>
<path d="M5.42383 6.31975H10.2383" stroke="#D9D9D9" stroke-width="1.09804" stroke-linecap="round" stroke-linejoin="round"/>
<path d="M17.8605 12.7391C20.2979 12.7391 22.2738 10.7632 22.2738 8.32578C22.2738 5.8884 20.2979 3.91251 17.8605 3.91251C15.4232 3.91251 13.4473 5.8884 13.4473 8.32578C13.4473 10.7632 15.4232 12.7391 17.8605 12.7391Z" stroke="#D9D9D9" stroke-width="1.09804" stroke-linecap="round" stroke-linejoin="round"/>
<path d="M15.0522 15.1463H2.21355C2.00073 15.1463 1.79664 15.0617 1.64615 14.9113C1.49567 14.7608 1.41113 14.5567 1.41113 14.3439V1.50526C1.41113 1.29245 1.49567 1.08835 1.64615 0.937872C1.79664 0.78739 2.00073 0.70285 2.21355 0.70285H19.8666C20.0795 0.70285 20.2835 0.78739 20.434 0.937872C20.5845 1.08835 20.6691 1.29245 20.6691 1.50526V4.92154" stroke="#D9D9D9" stroke-width="1.09804" stroke-linecap="round" stroke-linejoin="round"/>
<path d="M15.0518 11.73V18.356L17.8602 16.7511L20.6687 18.356V11.73" stroke="#D9D9D9" stroke-width="1.09804" stroke-linecap="round" stroke-linejoin="round"/>
</svg>
