<svg width="16" height="14" viewBox="0 0 16 14" fill="none" xmlns="http://www.w3.org/2000/svg">
<path d="M10.8682 5.35712L7.31778 2.9902C7.22865 2.93073 7.12504 2.89658 7.01801 2.8914C6.91098 2.88621 6.80455 2.91019 6.71009 2.96076C6.61562 3.01134 6.53666 3.08661 6.48163 3.17856C6.4266 3.2705 6.39757 3.37567 6.39764 3.48282V8.21666C6.39757 8.32381 6.4266 8.42897 6.48163 8.52092C6.53666 8.61286 6.61562 8.68814 6.71009 8.73871C6.80455 8.78929 6.91098 8.81326 7.01801 8.80808C7.12504 8.80289 7.22865 8.76874 7.31778 8.70927L10.8682 6.34235C10.9493 6.28834 11.0159 6.2151 11.0619 6.12916C11.108 6.04322 11.1321 5.94723 11.1321 5.84974C11.1321 5.75224 11.108 5.65626 11.0619 5.57031C11.0159 5.48437 10.9493 5.41114 10.8682 5.35712ZM7.5811 7.11086V4.59231L9.47316 5.84974L7.5811 7.11086ZM14.6819 0.52417H1.66381C1.34993 0.52417 1.04892 0.648855 0.826974 0.870797C0.605032 1.09274 0.480347 1.39376 0.480347 1.70763V9.99185C0.480347 10.3057 0.605032 10.6067 0.826974 10.8287C1.04892 11.0506 1.34993 11.1753 1.66381 11.1753H14.6819C14.9957 11.1753 15.2968 11.0506 15.5187 10.8287C15.7406 10.6067 15.8653 10.3057 15.8653 9.99185V1.70763C15.8653 1.39376 15.7406 1.09274 15.5187 0.870797C15.2968 0.648855 14.9957 0.52417 14.6819 0.52417ZM14.6819 9.99185H1.66381V1.70763H14.6819V9.99185ZM15.8653 12.9505C15.8653 13.1074 15.803 13.2579 15.692 13.3689C15.581 13.4799 15.4305 13.5422 15.2736 13.5422H1.07208C0.91514 13.5422 0.764631 13.4799 0.65366 13.3689C0.542689 13.2579 0.480347 13.1074 0.480347 12.9505C0.480347 12.7936 0.542689 12.643 0.65366 12.5321C0.764631 12.4211 0.91514 12.3588 1.07208 12.3588H15.2736C15.4305 12.3588 15.581 12.4211 15.692 12.5321C15.803 12.643 15.8653 12.7936 15.8653 12.9505Z" fill="#F21054"/>
</svg>
