<?xml version="1.0" encoding="UTF-8"?>
<svg id="Layer_1" data-name="Layer 1" xmlns="http://www.w3.org/2000/svg" viewBox="0 0 512 512">
  <defs>
    <style>
      .cls-1 {
        stroke-width: 0px;
      }
    </style>
  </defs>
  <path class="cls-1" d="M417.65,92h-120.65c-5.24,0-9.5,4.26-9.5,9.5s4.26,9.5,9.5,9.5h120.65c11.3,0,20.5,9.2,20.5,20.5v179.5H88.15v-179.5c0-11.3,9.2-20.5,20.5-20.5h120.85c5.24,0,9.5-4.26,9.5-9.5s-4.26-9.5-9.5-9.5h-120.85c-21.78,0-39.5,17.72-39.5,39.5v249c0,21.78,17.72,39.5,39.5,39.5h309c21.78,0,39.5-17.72,39.5-39.5v-249c0-21.78-17.72-39.5-39.5-39.5ZM438.15,380.5c0,11.3-9.2,20.5-20.5,20.5H108.65c-11.3,0-20.5-9.2-20.5-20.5v-50.5h350v50.5Z"/>
  <path class="cls-1" d="M146.09,390c13.51,0,24.5-10.99,24.5-24.5s-10.99-24.5-24.5-24.5-24.5,10.99-24.5,24.5,10.99,24.5,24.5,24.5ZM146.09,360c3.03,0,5.5,2.47,5.5,5.5s-2.47,5.5-5.5,5.5-5.5-2.47-5.5-5.5,2.47-5.5,5.5-5.5Z"/>
  <path class="cls-1" d="M208.39,375h186.81c5.24,0,9.5-4.26,9.5-9.5s-4.26-9.5-9.5-9.5h-186.81c-5.24,0-9.5,4.26-9.5,9.5s4.26,9.5,9.5,9.5Z"/>
  <path class="cls-1" d="M222.81,188.26v45.48c0,8.46,4.37,16.03,11.7,20.26,3.59,2.07,7.64,3.17,11.7,3.17s8.1-1.1,11.7-3.17l39.39-22.74c7.32-4.23,11.7-11.8,11.7-20.25s-4.37-16.03-11.7-20.25l-39.39-22.74c-7.32-4.23-16.07-4.23-23.39,0-7.32,4.23-11.7,11.8-11.7,20.26ZM241.81,188.26c0-2.21,1.37-3.33,2.2-3.8.4-.23,1.21-.61,2.23-.61.74,0,1.45.2,2.16.61l39.39,22.74c1.91,1.1,2.2,2.86,2.2,3.8s-.29,2.7-2.2,3.8l-39.39,22.74c-1.91,1.1-3.57.48-4.39,0-.82-.47-2.19-1.59-2.19-3.8v-45.48Z"/>
  <path class="cls-1" d="M263.25,111c2.5,0,4.95-1.02,6.71-2.79,1.77-1.77,2.79-4.22,2.79-6.71s-1.02-4.95-2.78-6.71c-1.77-1.77-4.21-2.79-6.72-2.79s-4.95,1.01-6.72,2.78c-1.77,1.76-2.78,4.21-2.78,6.72s1.01,4.96,2.78,6.72c1.77,1.77,4.22,2.78,6.72,2.78Z"/>
</svg>