<svg width="24" height="12" viewBox="0 0 24 12" fill="none" xmlns="http://www.w3.org/2000/svg">
<path d="M10.1988 8.07221L9.34687 9.08206C8.68877 9.77313 7.85027 10.2438 6.93743 10.4344C6.02459 10.6251 5.0784 10.5273 4.21851 10.1533C3.35862 9.77935 2.62366 9.14602 2.10657 8.33345C1.58947 7.52087 1.31348 6.56553 1.31348 5.58824C1.31348 4.61095 1.58947 3.65562 2.10657 2.84304C2.62366 2.03046 3.35862 1.39714 4.21851 1.02316C5.0784 0.649184 6.02459 0.551351 6.93743 0.742034C7.85027 0.932716 8.68877 1.40335 9.34687 2.09442L15.2409 9.08206C15.899 9.77313 16.7375 10.2438 17.6503 10.4344C18.5631 10.6251 19.5093 10.5273 20.3692 10.1533C21.2291 9.77935 21.9641 9.14602 22.4812 8.33345C22.9983 7.52087 23.2743 6.56553 23.2743 5.58824C23.2743 4.61095 22.9983 3.65562 22.4812 2.84304C21.9641 2.03046 21.2291 1.39714 20.3692 1.02316C19.5093 0.649184 18.5631 0.551351 17.6503 0.742034C16.7375 0.932716 15.899 1.40335 15.2409 2.09442L14.3889 3.10427" stroke="#D9D9D9" stroke-width="1.09804" stroke-linecap="round" stroke-linejoin="round"/>
</svg>
