<?xml version="1.0" encoding="UTF-8"?>
<svg id="Layer_1" data-name="Layer 1" xmlns="http://www.w3.org/2000/svg" viewBox="0 0 512 512">
  <defs>
    <style>
      .cls-1 {
        stroke-width: 0px;
      }
    </style>
  </defs>
  <path class="cls-1" d="M338.53,248.04h-96c-6.63,0-12,5.37-12,12s5.37,12,12,12h96c6.63,0,12-5.37,12-12s-5.37-12-12-12Z"/>
  <path class="cls-1" d="M338.53,188.04h-96c-6.63,0-12,5.37-12,12s5.37,12,12,12h96c6.63,0,12-5.37,12-12s-5.37-12-12-12Z"/>
  <path class="cls-1" d="M338.53,308.04h-96c-6.63,0-12,5.37-12,12s5.37,12,12,12h96c6.63,0,12-5.37,12-12s-5.37-12-12-12Z"/>
  <path class="cls-1" d="M194.76,188.04h-.12c-6.62,0-11.94,5.37-11.94,12s5.44,12,12.06,12,12-5.37,12-12-5.37-12-12-12Z"/>
  <path class="cls-1" d="M194.76,248.04h-.12c-6.62,0-11.94,5.37-11.94,12s5.44,12,12.06,12,12-5.37,12-12-5.37-12-12-12Z"/>
  <path class="cls-1" d="M194.76,308.04h-.12c-6.62,0-11.94,5.37-11.94,12s5.44,12,12.06,12,12-5.37,12-12-5.37-12-12-12Z"/>
  <path class="cls-1" d="M350.53,95.04h-168c-31.43,0-57,25.57-57,57v216c0,31.43,25.57,57,57,57h168c31.43,0,57-25.57,57-57v-216c0-31.43-25.57-57-57-57ZM389.53,368.04c0,21.5-17.5,39-39,39h-168c-21.5,0-39-17.5-39-39v-216c0-21.5,17.5-39,39-39h168c21.5,0,39,17.5,39,39v216Z"/>
</svg>