<?xml version="1.0" encoding="UTF-8"?>
<svg id="Layer_1" data-name="Layer 1" xmlns="http://www.w3.org/2000/svg" viewBox="0 0 512 512">
  <defs>
    <style>
      .cls-1 {
        stroke-width: 0px;
      }
    </style>
  </defs>
  <path class="cls-1" d="M436.27,78.54h-148.84c-12.2,0-22.12,9.92-22.12,22.12v114.76c0,12.2,9.92,22.12,22.12,22.12h148.84c12.2,0,22.12-9.92,22.12-22.12v-114.76c0-12.2-9.92-22.12-22.12-22.12ZM443.39,215.43c0,3.93-3.19,7.12-7.12,7.12h-148.84c-3.93,0-7.12-3.19-7.12-7.12v-114.76c0-3.93,3.19-7.12,7.12-7.12h148.84c3.93,0,7.12,3.19,7.12,7.12v114.76Z"/>
  <path class="cls-1" d="M380.31,146.13l-23.17-13.38c-4.31-2.49-9.45-2.49-13.76,0-4.31,2.49-6.88,6.94-6.88,11.91v26.75c0,4.97,2.57,9.43,6.88,11.91,2.11,1.22,4.49,1.86,6.88,1.86s4.77-.64,6.88-1.86l23.17-13.38c4.31-2.49,6.88-6.94,6.88-11.91s-2.57-9.43-6.88-11.91ZM374.72,160.28l-23.17,13.38c-1.12.65-2.1.28-2.58,0-.48-.28-1.29-.94-1.29-2.24v-26.75c0-1.3.81-1.96,1.29-2.24.23-.13.71-.36,1.31-.36.44,0,.85.12,1.27.36l23.17,13.38c1.12.65,1.29,1.68,1.29,2.24s-.17,1.59-1.29,2.24Z"/>
  <path class="cls-1" d="M436.27,258.54h-148.84c-12.2,0-22.12,9.92-22.12,22.12v114.76c0,12.2,9.92,22.12,22.12,22.12h148.84c12.2,0,22.12-9.92,22.12-22.12v-114.76c0-12.2-9.92-22.12-22.12-22.12ZM443.39,395.43c0,3.93-3.19,7.12-7.12,7.12h-148.84c-3.93,0-7.12-3.19-7.12-7.12v-114.76c0-3.93,3.19-7.12,7.12-7.12h148.84c3.93,0,7.12,3.19,7.12,7.12v114.76Z"/>
  <path class="cls-1" d="M380.31,326.13l-23.17-13.38c-4.31-2.49-9.45-2.49-13.76,0-4.31,2.49-6.88,6.94-6.88,11.91v26.75c0,4.97,2.57,9.43,6.88,11.91,2.11,1.22,4.49,1.86,6.88,1.86s4.77-.64,6.88-1.86l23.17-13.38c4.31-2.49,6.88-6.94,6.88-11.91s-2.57-9.43-6.88-11.91ZM374.72,340.28l-23.17,13.38c-1.12.65-2.1.28-2.58,0-.48-.28-1.29-.94-1.29-2.24v-26.75c0-1.3.81-1.96,1.29-2.24.23-.13.71-.36,1.31-.36.44,0,.85.12,1.27.36l23.17,13.38c1.12.65,1.29,1.68,1.29,2.24s-.17,1.59-1.29,2.24Z"/>
  <path class="cls-1" d="M224.58,78.54H75.73c-12.2,0-22.12,9.92-22.12,22.12v114.76c0,12.2,9.92,22.12,22.12,22.12h148.84c12.2,0,22.12-9.92,22.12-22.12v-114.76c0-12.2-9.92-22.12-22.12-22.12ZM231.7,215.43c0,3.93-3.19,7.12-7.12,7.12H75.73c-3.93,0-7.12-3.19-7.12-7.12v-114.76c0-3.93,3.19-7.12,7.12-7.12h148.84c3.93,0,7.12,3.19,7.12,7.12v114.76Z"/>
  <path class="cls-1" d="M168.62,146.13l-23.17-13.38c-4.31-2.49-9.45-2.49-13.76,0-4.31,2.49-6.88,6.94-6.88,11.91v26.75c0,4.97,2.57,9.43,6.88,11.91,2.11,1.22,4.49,1.86,6.88,1.86s4.77-.64,6.88-1.86l23.17-13.38c4.31-2.49,6.88-6.94,6.88-11.91s-2.57-9.43-6.88-11.91ZM163.03,160.28l-23.17,13.38c-1.12.65-2.1.28-2.58,0-.48-.28-1.29-.94-1.29-2.24v-26.75c0-1.3.81-1.96,1.29-2.24.23-.13.71-.36,1.31-.36.44,0,.85.12,1.27.36l23.17,13.38c1.12.65,1.29,1.68,1.29,2.24s-.17,1.59-1.29,2.24Z"/>
  <path class="cls-1" d="M224.58,258.54H75.73c-12.2,0-22.12,9.92-22.12,22.12v114.76c0,12.2,9.92,22.12,22.12,22.12h148.84c12.2,0,22.12-9.92,22.12-22.12v-114.76c0-12.2-9.92-22.12-22.12-22.12ZM231.7,395.43c0,3.93-3.19,7.12-7.12,7.12H75.73c-3.93,0-7.12-3.19-7.12-7.12v-114.76c0-3.93,3.19-7.12,7.12-7.12h148.84c3.93,0,7.12,3.19,7.12,7.12v114.76Z"/>
  <path class="cls-1" d="M168.62,326.13l-23.17-13.38c-4.31-2.49-9.45-2.49-13.76,0-4.31,2.49-6.88,6.94-6.88,11.91v26.75c0,4.97,2.57,9.43,6.88,11.91,2.11,1.22,4.49,1.86,6.88,1.86s4.77-.64,6.88-1.86l23.17-13.38c4.31-2.49,6.88-6.94,6.88-11.91s-2.57-9.43-6.88-11.91ZM163.03,340.28l-23.17,13.38c-1.12.65-2.1.28-2.58,0-.48-.28-1.29-.94-1.29-2.24v-26.75c0-1.3.81-1.96,1.29-2.24.23-.13.71-.36,1.31-.36.44,0,.85.12,1.27.36l23.17,13.38c1.12.65,1.29,1.68,1.29,2.24s-.17,1.59-1.29,2.24Z"/>
</svg>