<?xml version="1.0" encoding="UTF-8"?>
<svg id="Layer_1" data-name="Layer 1" xmlns="http://www.w3.org/2000/svg" viewBox="0 0 512 512">
  <defs>
    <style>
      .cls-1 {
        stroke-width: 0px;
      }
    </style>
  </defs>
  <path class="cls-1" d="M303.56,244.54c20.19-14.72,33.33-38.55,33.33-65.39,0-44.6-36.29-80.89-80.89-80.89s-80.89,36.29-80.89,80.89c0,26.84,13.14,50.67,33.33,65.39-50.18,19.2-85.91,67.86-85.91,124.71,0,24.53,19.96,44.49,44.49,44.49h177.96c24.53,0,44.49-19.96,44.49-44.49,0-56.85-35.73-105.5-85.91-124.71ZM199.38,179.15c0-31.22,25.4-56.62,56.62-56.62s56.62,25.4,56.62,56.62-25.4,56.62-56.62,56.62-56.62-25.4-56.62-56.62ZM344.98,389.47h-177.96c-11.15,0-20.22-9.07-20.22-20.22,0-60.22,48.99-109.2,109.2-109.2s109.2,48.99,109.2,109.2c0,11.15-9.07,20.22-20.22,20.22Z"/>
</svg>