<svg width="22" height="21" viewBox="0 0 22 21" fill="none" xmlns="http://www.w3.org/2000/svg">
<path d="M15.9464 15.0917H8.14777C7.84599 15.0917 7.55379 14.9861 7.32213 14.7935C7.09046 14.6009 6.93402 14.3335 6.88008 14.0378L4.72966 2.25836H2.73792" stroke="#D9D9D9" stroke-width="1.35385" stroke-linecap="round" stroke-linejoin="round"/>
<path d="M8.21456 18.3C9.10417 18.3 9.82535 17.5818 9.82535 16.6958C9.82535 15.8099 9.10417 15.0917 8.21456 15.0917C7.32494 15.0917 6.60376 15.8099 6.60376 16.6958C6.60376 17.5818 7.32494 18.3 8.21456 18.3Z" stroke="#D9D9D9" stroke-width="1.35385" stroke-linecap="round" stroke-linejoin="round"/>
<path d="M15.9464 18.3C16.836 18.3 17.5572 17.5818 17.5572 16.6958C17.5572 15.8099 16.836 15.0917 15.9464 15.0917C15.0567 15.0917 14.3356 15.8099 14.3356 16.6958C14.3356 17.5818 15.0567 18.3 15.9464 18.3Z" stroke="#D9D9D9" stroke-width="1.35385" stroke-linecap="round" stroke-linejoin="round"/>
<path d="M6.48704 11.8833H16.5988C16.9006 11.8833 17.1928 11.7778 17.4245 11.5852C17.6561 11.3926 17.8126 11.1251 17.8665 10.8294L18.8459 5.46667H5.31519" stroke="#D9D9D9" stroke-width="1.35385" stroke-linecap="round" stroke-linejoin="round"/>
</svg>
