<svg width="21" height="21" viewBox="0 0 21 21" fill="none" xmlns="http://www.w3.org/2000/svg">
<path d="M10.5591 16.3603L15.4842 19.389C15.612 19.4665 15.7599 19.5045 15.9092 19.498C16.0586 19.4915 16.2026 19.4409 16.3232 19.3526C16.4438 19.2643 16.5356 19.1422 16.5868 19.0017C16.638 18.8613 16.6464 18.7088 16.611 18.5636L15.2718 12.9122L19.655 9.13193C19.7668 9.0338 19.8474 8.90509 19.8868 8.76169C19.9262 8.61829 19.9228 8.46648 19.877 8.325C19.8311 8.18352 19.7448 8.05856 19.6288 7.96556C19.5127 7.87256 19.372 7.81558 19.2239 7.80165L13.4716 7.33362L11.2557 1.9693C11.1992 1.83091 11.1028 1.71247 10.9787 1.62911C10.8546 1.54574 10.7085 1.50122 10.5591 1.50122C10.4096 1.50122 10.2635 1.54574 10.1394 1.62911C10.0154 1.71247 9.91892 1.83091 9.86243 1.9693L7.64649 7.33362L1.89425 7.80165C1.74517 7.81474 1.60325 7.87147 1.48622 7.96475C1.3692 8.05804 1.28226 8.18373 1.23626 8.32614C1.19026 8.46855 1.18725 8.62136 1.2276 8.76547C1.26795 8.90958 1.34986 9.03861 1.46312 9.13643L5.84639 12.9167L4.5071 18.5636C4.4717 18.7088 4.48014 18.8613 4.53137 19.0017C4.58259 19.1422 4.6743 19.2643 4.7949 19.3526C4.9155 19.4409 5.05958 19.4915 5.20893 19.498C5.35827 19.5045 5.50619 19.4665 5.63397 19.389L10.5591 16.3603Z" stroke="#D9D9D9" stroke-width="1.08007" stroke-linecap="round" stroke-linejoin="round"/>
</svg>
