<svg width="363" height="363" viewBox="0 0 363 363" fill="none" xmlns="http://www.w3.org/2000/svg">
<path d="M5.5 250.5C5.5 328 83.7832 302.5 178.5 302.5C273.217 302.5 350 335 350 190.5C350 95.2309 273.217 49 178.5 49C83.7832 49 5.5 155.231 5.5 250.5Z" fill="#252121"/>
<path opacity="0.19" d="M181.5 323.215C84.8687 323.215 6.53381 318.21 6.53381 312.035C6.53381 305.86 84.8687 300.854 181.5 300.854C278.131 300.854 356.466 305.86 356.466 312.035C356.466 318.21 278.131 323.215 181.5 323.215Z" fill="black"/>
<path d="M248.147 39.6396C258.819 45.012 281.252 59.9676 276.896 72.0918C272.976 84.1434 252.357 70.3494 244.952 64.4688C239.289 59.9676 226.367 43.0518 241.613 46.2462C249.453 47.8434 263.32 62.5086 264.845 69.7686C270.87 98.736 223.463 67.3728 229.198 62.0004C237.257 54.1596 270.144 94.38 243.645 89.0076C236.821 87.7008 221.648 73.9794 234.861 77.7546C245.823 81.1668 245.46 94.3074 235.877 95.6142" stroke="#8E8685" stroke-width="1.8857" stroke-miterlimit="10"/>
<path d="M179.176 102.076C179.176 102.076 177.144 126.687 189.268 130.317C201.392 133.947 244.008 173.587 254.68 163.786C274.863 145.2 276.097 143.24 267.603 134.746C261.069 128.212 195.366 108.537 195.366 108.537C195.366 108.537 189.34 93.2184 180.048 93.2184C170.755 93.2184 179.176 102.076 179.176 102.076Z" fill="white"/>
<path d="M190.502 100.115C187.888 96.558 184.258 93.291 179.975 93.291C170.682 93.291 179.176 102.148 179.176 102.148C179.176 102.148 177.361 124.219 187.453 129.664C188.614 119.79 189.631 109.916 190.502 100.115Z" fill="#292827"/>
<path d="M158.558 178.378C158.558 178.378 240.087 129.518 248.945 132.35C264.408 137.287 267.53 151.734 267.53 151.734C267.53 151.734 245.75 179.975 204.586 201.755C163.422 223.535 158.558 178.378 158.558 178.378Z" fill="white"/>
<path d="M200.738 154.13C179.176 166.036 158.557 178.378 158.557 178.378C158.557 178.378 163.421 223.608 204.586 201.755C212.281 197.69 219.323 193.406 225.64 189.123C218.017 176.999 209.305 165.528 200.738 154.13Z" fill="#292827"/>
<path d="M161.825 166.69C161.825 166.69 190.067 153.767 197.327 151.734C197.327 151.734 213.444 189.268 215.477 205.385C215.477 205.385 190.865 222.737 171.917 230.795C152.968 238.854 161.825 166.69 161.825 166.69Z" fill="#6F96BD"/>
<path d="M160.591 179.83C159.067 200.231 158.196 236.676 171.917 230.795C180.556 227.165 190.285 221.575 198.416 216.566C189.922 203.57 180.992 190.938 170.538 179.54C167.198 179.322 163.858 179.467 160.591 179.83Z" fill="#4F7DA3"/>
<path d="M118.627 139.247C118.627 139.247 121.023 161.462 109.335 168.287C97.6459 175.111 74.1961 162.624 68.1703 194.495C62.1445 226.367 166.253 176.708 166.253 176.708L153.766 137.577L118.627 139.247Z" fill="white"/>
<path d="M123.056 139.247C122.983 145.853 122.04 152.678 123.129 159.212C124.145 165.238 126.976 170.247 130.534 175.111C133.873 179.685 137.721 183.896 142.15 187.381C156.016 181.645 166.253 176.781 166.253 176.781L153.766 137.65L123.056 139.029C123.056 139.102 123.056 139.174 123.056 139.247Z" fill="#292827"/>
<path d="M105.342 168.722C105.342 168.722 130.752 192.1 158.195 181.064L179.612 164.294C179.612 164.294 184.185 223.898 194.132 287.786C202.263 340.058 93.6532 290.618 93.6532 290.618C93.6532 290.618 57.7162 205.894 68.2432 185.275C78.7702 164.657 105.342 168.722 105.342 168.722Z" fill="#6F96BD"/>
<path d="M193.042 281.398C190.864 281.325 188.614 281.18 186.436 280.962C167.85 279.074 150.353 271.016 135.325 260.053C120.152 248.945 107.882 234.425 96.9924 219.179C87.7722 206.329 79.641 192.753 73.107 178.378C71.2194 180.338 69.5496 182.589 68.1702 185.348C57.6432 205.894 93.5802 290.69 93.5802 290.69C93.5802 290.69 200.23 333.161 194.059 287.859C193.841 285.608 193.405 283.503 193.042 281.398Z" fill="#4F7DA3"/>
<path d="M101.276 228.835C101.276 228.835 103.672 264.337 102.075 275.227C102.075 275.227 175.982 287.569 191.3 292.433C206.619 297.297 211.12 311.236 211.12 311.236C211.12 311.236 95.6135 315.955 73.3979 310.365C51.1823 304.702 56.4821 222.374 56.4821 222.374L101.276 228.835Z" fill="white"/>
<path d="M102.365 250.47C102.002 239.217 101.276 228.835 101.276 228.835L56.482 222.374C56.482 222.374 55.8286 232.247 55.9738 245.388C70.276 250.978 86.6836 251.995 102.365 250.47Z" fill="#292827"/>
<path d="M83.4891 171.917C83.4891 171.917 47.9877 177.58 51.1821 237.692C51.1821 237.692 83.4891 249.018 109.698 240.887C109.77 240.959 111.803 171.118 83.4891 171.917Z" fill="#6F96BD"/>
<path d="M158.993 81.5298C158.993 81.5298 193.26 81.0942 187.235 110.57C181.209 140.045 182.806 163.423 175.546 169.884C168.286 176.345 125.887 178.741 124.726 138.013C123.564 97.284 130.752 80.2956 158.993 81.5298Z" fill="white"/>
<path d="M125.089 126.76C125.089 126.76 127.484 113.038 116.231 113.474C104.906 113.909 113.836 145.781 122.693 141.352C131.55 136.851 125.089 126.76 125.089 126.76Z" fill="white"/>
<path d="M110.787 122.258C110.787 122.258 110.787 116.233 115.651 114.2C118.845 112.893 123.274 115.724 124.145 120.08C125.96 128.938 112.82 164.076 136.632 176.563L136.415 174.748C136.415 174.748 143.457 181.427 158.195 180.992L158.63 178.378L159.429 181.427C159.429 181.427 177.797 180.992 179.829 169.085L178.813 173.732C178.813 173.732 183.024 172.352 183.822 163.205C184.621 154.13 182.588 145.055 182.588 145.055C182.588 145.055 178.74 164.221 175.909 163.64C173.078 163.06 178.16 143.893 173.295 142.877C168.431 141.86 140.988 136.198 140.988 146.289C140.988 146.289 145.998 162.406 139.609 161.39C133.148 160.373 129.735 157.76 130.534 140.408C131.333 123.057 134.382 105.488 134.382 105.488C134.382 105.488 144.038 107.085 145.054 92.565C145.054 92.565 158.775 110.134 179.757 108.101C179.757 108.101 165.6 106.069 159.211 99.6072C159.211 99.6072 185.274 114.708 206.619 98.01L199.577 98.4456C199.577 98.4456 209.232 94.5978 207.635 80.5134C207.635 80.5134 204.586 87.5556 200.157 89.0076C200.157 89.0076 206.619 84.579 205.022 76.5204C205.022 76.5204 199.141 84.579 193.333 86.031C193.333 86.031 203.86 85.0146 202.045 70.2768L194.785 74.4876C194.785 74.4876 199.649 71.874 199.649 66.792C199.649 66.792 186.509 73.6164 175.836 70.2042C165.164 66.792 138.302 55.1034 130.824 78.4806C130.824 78.4806 121.169 72.4548 111.44 82.3284C101.712 92.202 110.787 122.258 110.787 122.258Z" fill="#352C38"/>
<path d="M107.157 82.9092C112.166 78.6984 118.99 75.4314 125.597 77.1738C128.501 77.8272 131.042 79.9326 133.293 81.8202L132.421 79.4244C130.389 73.8342 133.728 68.0988 138.447 65.0496C139.754 64.1784 141.496 63.3072 142.948 62.5812C156.742 56.265 169.665 69.9138 181.426 66.5742C182.806 66.1386 184.04 65.4126 185.129 64.5414C181.644 67.0824 177.143 67.0098 173.223 65.7756C166.471 63.8154 160.3 60.258 153.04 59.4594C148.684 58.8786 144.255 59.895 140.407 62.0004C133.656 65.34 128.356 72.0918 131.26 79.86L132.349 79.0614C124.145 72.6 113.763 76.23 107.157 82.9092Z" fill="#352C38"/>
<path d="M105.124 69.4056C114.271 69.4056 125.016 71.0028 130.752 78.9162C131.55 80.0052 132.131 81.2394 132.639 82.4736L133.293 82.1106C130.243 76.7382 125.742 67.4454 131.187 62.3634C125.234 67.3002 129.517 77.1012 132.712 82.5462L133.365 82.1832C129.227 71.148 115.578 68.5344 105.124 69.4056Z" fill="#352C38"/>
<path d="M144.692 148.322C144.692 148.322 148.902 135.036 170.102 152.968L144.692 148.322Z" fill="white"/>
<path d="M170.101 116.668C169.012 123.856 168.577 131.769 168.141 139.029L167.923 142.223L168.795 141.715C166.036 140.626 163.277 139.537 160.446 138.666C162.987 140.191 165.673 141.497 168.286 142.877L169.012 143.24C169.085 142.732 169.303 141.352 169.375 140.771C170.392 132.785 170.682 124.654 170.101 116.668Z" fill="#271413"/>
<path d="M119.426 136.851C117.611 133.947 117.684 131.406 121.677 131.261H121.895L121.967 131.043C122.766 126.469 123.855 115.361 116.522 116.378C110.932 117.394 112.457 124.582 114.054 128.357C113.037 124.799 111.513 117.902 116.667 117.104C123.056 116.233 121.895 126.977 121.459 130.97L121.677 130.753C117.466 131.043 117.176 133.874 119.426 136.851Z" fill="#271413"/>
<path d="M171.481 111.005C170.029 117.902 178.16 123.42 184.403 121.315C181.935 119.863 179.321 118.774 177.071 117.104C174.82 115.361 173.15 113.474 171.481 111.005Z" fill="#1A141C"/>
<path d="M165.02 110.352C161.244 112.53 157.397 113.474 153.186 113.619C149.846 113.692 146.579 113.183 143.24 112.966C146.361 115.652 150.645 117.031 154.783 116.741C158.921 116.45 163.35 114.345 165.02 110.352Z" fill="#1A141C"/>
<path d="M154.492 123.202C154.129 125.743 152.895 127.631 151.878 127.486C150.862 127.34 150.281 125.162 150.717 122.621C151.08 120.08 152.314 118.193 153.33 118.338C154.419 118.483 154.927 120.661 154.492 123.202Z" fill="#1A141C"/>
<path d="M177.507 127.195C177.144 129.736 175.909 131.624 174.893 131.479C173.877 131.333 173.296 129.155 173.731 126.614C174.094 124.073 175.329 122.186 176.345 122.331C177.434 122.476 177.942 124.727 177.507 127.195Z" fill="#1A141C"/>
<path d="M148.902 125.308C148.684 127.123 148.684 129.083 149.628 130.753C151.225 133.003 153.403 131.261 154.275 129.373C154.855 128.284 155.218 127.123 155.509 125.961C154.71 127.486 153.912 129.155 152.677 130.39C149.919 132.931 149.12 127.195 148.902 125.308Z" fill="#271413"/>
<path d="M172.497 129.518C172.279 131.116 172.207 132.785 172.933 134.31C174.094 136.561 176.345 135.326 177.071 133.439C177.506 132.422 177.724 131.406 177.797 130.317C177.434 131.333 176.998 132.277 176.49 133.148C173.731 137.577 172.787 131.842 172.497 129.518Z" fill="#271413"/>
<path d="M294.393 312.833H196.528L233.554 231.957H331.419L294.393 312.833Z" fill="#454246"/>
<path d="M142.006 304.121H210.104V312.833H142.006V304.121Z" fill="#454246"/>
<path d="M300.999 312.833H203.135L240.161 231.957H338.025L300.999 312.833Z" fill="#878787"/>
</svg>
